<!DOCTYPE svg PUBLIC "-//W3C//DTD SVG 1.1//EN" "http://www.w3.org/Graphics/SVG/1.1/DTD/svg11.dtd">
<!-- Uploaded to: SVG Repo, www.svgrepo.com, Transformed by: SVG Repo Mixer Tools -->
<svg version="1.1" id="Layer_1" xmlns="http://www.w3.org/2000/svg" xmlns:xlink="http://www.w3.org/1999/xlink" viewBox="0 0 512 512" xml:space="preserve" width="180px" height="180px" fill="#000000">
<g id="SVGRepo_bgCarrier" stroke-width="0"/>
<g id="SVGRepo_tracerCarrier" stroke-linecap="round" stroke-linejoin="round"/>
<g id="SVGRepo_iconCarrier"> <path style="fill:#FDA409;" d="M502.865,188.049C473.095,79.648,373.856,0,256,0C114.615,0,0,114.615,0,256 c0,117.856,79.648,217.094,188.049,246.865L502.865,188.049z"/> <path style="fill:#F8513A;" d="M512,256c0-23.529-3.191-46.309-9.135-67.951l-89.458-89.458L98.592,413.408l89.458,89.458 c21.641,5.944,44.422,9.135,67.951,9.135C397.385,512,512,397.384,512,256z"/> <path style="fill:#FFF3AD;" d="M256,33.391L144.696,256L256,478.609c122.943,0,222.609-99.665,222.609-222.609 S378.943,33.391,256,33.391z"/> <path style="fill:#FFFFFF;" d="M33.391,256c0,122.943,99.665,222.609,222.609,222.609V33.391 C133.057,33.391,33.391,133.057,33.391,256z"/> <path style="fill:#FFD23E;" d="M256,66.783L161.391,256L256,445.217c104.501,0,189.217-84.715,189.217-189.217 S360.501,66.783,256,66.783z"/> <path style="fill:#FFE376;" d="M66.783,256c0,104.503,84.716,189.217,189.217,189.217V66.783 C151.499,66.783,66.783,151.497,66.783,256z"/> <polygon style="fill:#FA690E;" points="256,55.652 232.255,162.504 318.33,162.504 "/> <polygon style="fill:#FC870B;" points="193.67,162.504 256,162.504 256,55.653 "/> <polygon style="fill:#FDA409;" points="263.233,143.865 155.826,82.493 155.273,206.196 "/> <polygon style="fill:#FC870B;" points="206.196,155.272 82.493,155.826 143.865,263.231 "/> <polygon style="fill:#FDA409;" points="55.652,256 162.504,318.33 162.504,193.67 "/> <polygon style="fill:#FC870B;" points="143.865,248.767 82.493,356.174 206.196,356.727 "/> <polygon style="fill:#FDA409;" points="155.272,305.804 155.826,429.506 263.231,368.135 "/> <polygon style="fill:#FC870B;" points="256,456.348 279.745,349.496 193.67,349.496 "/> <polygon style="fill:#FA690E;" points="318.33,349.496 256,349.496 256,456.347 "/> <polygon style="fill:#FC870B;" points="356.727,305.804 248.767,368.135 356.174,429.507 "/> <polygon style="fill:#FA690E;" points="429.506,356.174 368.135,248.769 305.804,356.728 "/> <polygon style="fill:#FC870B;" points="456.348,256 349.496,193.67 349.496,318.33 "/> <polygon style="fill:#FA690E;" points="429.506,155.826 305.804,155.273 368.135,263.233 "/> <polygon style="fill:#FC870B;" points="356.728,206.196 356.174,82.494 248.769,143.865 "/> <path style="fill:#FFF3AD;" d="M256,144.696L211.478,256L256,367.304c61.472,0,111.304-49.832,111.304-111.304 S317.472,144.696,256,144.696z"/> <path style="fill:#FFFFFF;" d="M144.696,256c0,61.472,49.832,111.304,111.304,111.304V144.696 C194.528,144.696,144.696,194.528,144.696,256z"/> <path style="fill:#81982D;" d="M256,166.957L220.383,256L256,345.043c49.178,0,89.043-39.866,89.043-89.043 S305.178,166.957,256,166.957z"/> <g> <path style="fill:#A0AD2F;" d="M166.957,256c0,49.178,39.866,89.043,89.043,89.043V166.957 C206.822,166.957,166.957,206.822,166.957,256z"/> <rect x="244.87" y="222.609" style="fill:#A0AD2F;" width="33.391" height="22.261"/> </g> <g> <rect x="233.739" y="300.522" style="fill:#81982D;" width="33.391" height="22.261"/> <rect x="200.348" y="267.13" style="fill:#81982D;" width="22.261" height="22.261"/> </g> <rect x="289.391" y="267.13" style="fill:#F8513A;" width="22.261" height="22.261"/> <rect x="222.609" y="200.348" style="fill:#FA7461;" width="22.261" height="22.261"/> </g>
</svg>